<svg width="424" height="143" viewBox="0 0 424 143" fill="none" xmlns="http://www.w3.org/2000/svg">
<path d="M155.721 141.526H134.672V81.41H154.575C165.467 81.41 174.313 83.2118 181.111 92.6305C185.042 98.036 186.598 104.67 186.598 111.304C186.68 131.042 175.378 141.526 155.721 141.526ZM156.704 94.9238H150.07V128.012H156.622C167.105 128.012 171.282 121.296 171.282 111.55C171.282 101.967 166.942 94.9238 156.704 94.9238Z" fill="black"/>
<path d="M192.003 91.6477V81.41H205.517V91.6477H192.003ZM192.003 141.526V96.4799H205.517V141.526H192.003Z" fill="black"/>
<path d="M225.255 116.792V141.526H211.741V96.48H224.436V101.312H224.6C226.975 96.6438 230.661 95.0058 235.902 95.0058V108.602C229.923 108.602 225.255 109.748 225.255 116.792Z" fill="black"/>
<path d="M282.587 123.098H248.761C249.58 128.422 254.003 131.616 259.326 131.616C263.012 131.616 265.305 130.142 267.517 127.357H281.358C277.427 136.366 269.482 142.918 259.326 142.918C246.14 142.918 235.411 132.189 235.411 119.003C235.411 105.899 245.813 94.7601 259.081 94.7601C272.922 94.7601 282.914 105.817 282.914 119.331C282.914 120.723 282.832 121.87 282.587 123.098ZM259.163 106.308C254.249 106.308 249.99 109.175 248.925 114.007H269.4C268.336 109.093 264.077 106.308 259.163 106.308Z" fill="black"/>
<path d="M308.714 143C295.2 143 284.553 132.353 284.553 118.839C284.553 105.489 294.954 94.842 308.386 94.842C319.934 94.842 329.926 102.295 332.301 113.761H318.542C316.576 109.502 313.136 107.455 308.468 107.455C301.998 107.455 298.067 112.779 298.067 118.921C298.067 125.228 302.244 130.387 308.796 130.387C313.3 130.387 316.494 128.258 318.542 124.409H332.301C329.681 135.465 320.016 143 308.714 143Z" fill="black"/>
<path d="M352.039 106.718V141.526H338.526V106.718H331.892V96.4799H338.526V81.4919H352.039V96.4799H358.51V106.718H352.039Z" fill="black"/>
<path d="M159.243 62.2454C141.798 62.2454 127.629 48.6497 127.629 31.0408C127.629 13.4319 141.634 0 159.079 0C169.89 0 179.473 4.99601 185.452 14.0871C187.417 17.0356 188.973 20.3936 189.465 23.9153H173.412C171.037 17.7727 165.631 13.4319 158.915 13.4319C149.169 13.4319 142.863 21.704 142.863 30.9589C142.863 40.2138 149.169 48.8135 158.997 48.8135C165.713 48.8135 170.709 44.6365 173.412 38.6577H189.465C186.025 52.8267 173.658 62.2454 159.243 62.2454Z" fill="black"/>
<path d="M298.64 36.5281V61.0986H285.208V37.1833C285.208 32.2692 284.552 27.1913 278.328 27.1913C272.349 27.1913 270.875 31.3682 270.875 36.5281V61.0986H257.443V36.61C257.443 32.0235 256.378 27.1913 250.727 27.1913C244.502 27.1913 243.11 31.8597 243.11 37.1833V61.0986H229.678V32.5968L199.702 76.0866H183.895L192.822 63.2281V16.1345H206.254V43.4078H206.664L225.174 16.1345H242.209V20.8848H242.373C244.994 16.2983 249.662 14.5784 254.74 14.5784C260.555 14.5784 264.978 17.5268 267.681 22.6047C270.957 17.5268 275.871 14.5784 281.932 14.5784C286.354 14.5784 290.613 15.8888 293.725 19.083C298.885 24.3247 298.64 29.6483 298.64 36.5281Z" fill="black"/>
<path d="M330.336 62.6551C325.75 62.6551 319.771 60.6894 317.477 56.3486H317.314V61.0989H304.455V1.14679H317.887V19.6566C321.409 15.971 325.913 14.5787 330.909 14.5787C334.185 14.5787 337.38 15.3977 340.41 16.79C349.092 20.8032 353.023 28.9934 353.023 38.3302C353.023 51.844 344.341 62.6551 330.336 62.6551ZM328.616 27.1916C322.228 27.1916 317.477 32.1876 317.477 38.494C317.477 44.8824 321.818 50.0422 328.37 50.0422C334.841 50.0422 339.591 44.9643 339.591 38.5759C339.591 32.4333 334.923 27.1916 328.616 27.1916Z" fill="black"/>
<path d="M390.779 61.0986V56.2664H390.615C388.158 60.8529 382.343 62.6547 377.511 62.6547C363.67 62.6547 354.906 51.9256 354.906 38.5756C354.906 25.4713 363.997 14.5784 377.511 14.5784C382.425 14.5784 387.995 16.4621 390.615 20.8848H390.779V16.1345H404.211V61.0986H390.779ZM379.477 27.1913C372.925 27.1913 368.42 32.3511 368.42 38.7394C368.42 44.9639 373.252 50.0419 379.559 50.0419C386.111 50.0419 390.779 45.0458 390.779 38.5756C390.779 32.0235 386.029 27.1913 379.477 27.1913Z" fill="black"/>
<path d="M410.518 61.0989V1.14679H423.95V61.0989H410.518Z" fill="black"/>
<path fill-rule="evenodd" clip-rule="evenodd" d="M49.1144 0.176208C88.1032 0.176212 119.753 31.9518 119.753 71.0299C119.753 110.174 88.1032 141.949 49.1144 141.884L49.1144 99.3188C64.6444 99.3188 77.2912 86.6217 77.2912 71.0299C77.2912 55.4381 64.6444 42.7411 49.1144 42.7411L49.1144 0.176208ZM49.1134 116.449L49.1134 25.3049C49.1134 11.714 38.0463 0.650518 24.5567 0.650518C11.0671 0.650519 -5.89622e-07 11.7617 0 25.3049L3.21592e-06 116.449C3.80554e-06 129.992 11.0672 141.103 24.5567 141.103C38.0463 141.103 49.1134 129.992 49.1134 116.449Z" fill="url(#paint0_linear_239_3527)"/>
<defs>
<linearGradient id="paint0_linear_239_3527" x1="54.4405" y1="10.9304" x2="5.93897" y2="135.9" gradientUnits="userSpaceOnUse">
<stop stop-color="#F74678"/>
<stop offset="1" stop-color="#6C7EFF"/>
</linearGradient>
</defs>
</svg>

